<svg xmlns="http://www.w3.org/2000/svg" viewBox="0 0 400 400" width="72" height="72">
  <!-- Background Circle -->
  <circle cx="200" cy="200" r="180" fill="#121212"/>
  
  <!-- Headphone Left Ear Cup -->
  <path d="M80 210C80 200 85 180 85 180C85 150 110 130 140 130C170 130 180 150 180 180" stroke="#a855f7" stroke-width="15" fill="transparent"/>
  
  <!-- Headphone Right Ear Cup -->
  <path d="M320 210C320 200 315 180 315 180C315 150 290 130 260 130C230 130 220 150 220 180" stroke="#a855f7" stroke-width="15" fill="transparent"/>
  
  <!-- Headphone Band -->
  <path d="M85 180C85 180 85 120 200 120C315 120 315 180 315 180" stroke="#a855f7" stroke-width="15" fill="transparent"/>
  
  <!-- Left Ear Cup -->
  <rect x="65" y="190" width="40" height="80" rx="15" fill="#a855f7"/>
  
  <!-- Right Ear Cup -->
  <rect x="295" y="190" width="40" height="80" rx="15" fill="#a855f7"/>
  
  <!-- Sound Waves - Left Side -->
  <path d="M25 180C40 180 50 130 50 200" stroke="#a855f7" stroke-width="5" fill="transparent"/>
  <path d="M10 180C25 180 35 120 35 200" stroke="#a855f7" stroke-width="5" fill="transparent"/>
  
  <!-- Sound Waves - Right Side -->
  <path d="M375 180C360 180 350 130 350 200" stroke="#a855f7" stroke-width="5" fill="transparent"/>
  <path d="M390 180C375 180 365 120 365 200" stroke="#a855f7" stroke-width="5" fill="transparent"/>
  
  <!-- SL Text -->
  <text x="200" y="300" font-family="Arial, sans-serif" font-size="30" font-weight="bold" fill="#a855f7" text-anchor="middle">SL</text>
</svg> 